<?xml version="1.0" standalone="no"?>
<!DOCTYPE svg PUBLIC "-//W3C//DTD SVG 20010904//EN"
 "http://www.w3.org/TR/2001/REC-SVG-20010904/DTD/svg10.dtd">
<svg version="1.0" xmlns="http://www.w3.org/2000/svg"
 width="512.000000pt" height="512.000000pt" viewBox="0 0 512.000000 512.000000"
 preserveAspectRatio="xMidYMid meet">

<g transform="translate(0.000000,512.000000) scale(0.100000,-0.100000)"
fill="#000000" stroke="none">
<path d="M3500 4569 c-344 -81 -780 -185 -970 -230 -190 -45 -408 -96 -485
-115 -77 -18 -295 -70 -485 -114 -190 -45 -439 -104 -555 -131 -116 -28 -223
-53 -238 -56 -16 -3 -33 -15 -37 -27 -7 -16 -212 -990 -223 -1055 -1 -9 43
-31 133 -66 74 -28 509 -197 965 -375 457 -178 945 -367 1085 -422 140 -54
270 -105 289 -114 18 -8 35 -13 37 -12 1 2 -144 94 -324 204 -1014 624 -1538
947 -1545 954 -5 4 18 22 50 40 32 18 389 220 793 448 404 228 872 492 1040
587 168 95 489 277 715 404 225 127 403 231 395 230 -8 0 -296 -68 -640 -150z"/>
<path d="M3665 3581 c-59 -15 -157 -75 -197 -120 -181 -204 -116 -523 132
-640 49 -23 67 -26 165 -26 104 0 114 2 177 33 254 125 306 462 100 654 -77
72 -146 100 -255 104 -51 2 -106 0 -122 -5z"/>
<path d="M842 2369 c-217 -37 -372 -254 -333 -466 26 -139 104 -244 229 -305
63 -31 74 -33 172 -33 97 0 110 2 170 31 163 78 254 239 236 417 -12 123 -106
261 -216 317 -72 37 -176 53 -258 39z"/>
<path d="M3763 2132 c-122 -70 -324 -186 -450 -258 -125 -72 -442 -252 -703
-399 -261 -147 -594 -335 -740 -418 -322 -182 -396 -224 -905 -510 -220 -124
-407 -231 -415 -236 -13 -9 -13 -10 0 -6 8 2 436 104 950 225 1256 297 1656
391 1905 450 116 28 283 68 373 89 89 21 164 40 166 42 1 2 44 207 96 454 51
248 101 488 112 534 10 47 15 87 11 91 -7 6 -121 50 -163 64 -8 3 -115 -52
-237 -122z"/>
</g>
</svg>
